<?xml version="1.0" encoding="utf-8"?>
<svg version="1.1" xmlns:xlink="http://www.w3.org/1999/xlink" width="1153px" height="175px" xmlns="http://www.w3.org/2000/svg">
  <defs>
    <mask fill="white" id="clip110">
      <path d="M 1152 0  L 0 0  L 0 174  L 1152 174  L 1152 0  Z " fill-rule="evenodd" />
    </mask>
  </defs>
  <g transform="matrix(1 0 0 1 0 -2702 )">
    <path d="M 1152 0  L 0 0  L 0 174  L 1152 174  L 1152 0  Z " fill-rule="nonzero" fill="#ffd5d5" stroke="none" transform="matrix(1 0 0 1 0 2702 )" />
    <path d="M 1152 0  L 0 0  L 0 174  L 1152 174  L 1152 0  Z " stroke-width="2" stroke="#ffd5d5" fill="none" transform="matrix(1 0 0 1 0 2702 )" mask="url(#clip110)" />
    <path d="M 110.5 0  L 110.5 174  M 1031.5 0  L 1031.5 174  " stroke-width="1" stroke="#ffd5d5" fill="none" transform="matrix(1 0 0 1 0 2702 )" />
  </g>
</svg>