<?xml version="1.0" encoding="utf-8"?>
<svg version="1.1" xmlns:xlink="http://www.w3.org/1999/xlink" width="35px" height="35px" xmlns="http://www.w3.org/2000/svg">
  <g transform="matrix(1 0 0 1 -34 -2788 )">
    <path d="M 34.92542613636364 27.12002840909091  C 34.97514204545455 27.236032196969695  35 27.410037878787872  35 27.642045454545457  C 35 28.089488636363633  34.917140151515156 28.673650568181817  34.75142045454545 29.39453125  C 34.585700757575765 30.115411931818183  34.41169507575758 30.68300189393939  34.229403409090914 31.097301136363633  C 33.88139204545455 31.925899621212118  32.8705018939394 32.804214015151516  31.196732954545457 33.73224431818182  C 29.638967803030305 34.57741477272727  28.097774621212125 35  26.57315340909091 35  C 26.125710227272727 35  25.686553030303035 34.970999053030305  25.255681818181817 34.912997159090914  C 24.82481060606061 34.854995265151516  24.34836647727273 34.75142045454545  23.826349431818183 34.60227272727273  C 23.304332386363637 34.453125  22.91489109848485 34.33297821969697  22.658025568181817 34.24183238636364  C 22.401160037878793 34.150686553030305  21.941287878787882 33.98082386363636  21.27840909090909 33.73224431818182  C 20.615530303030305 33.48366477272727  20.20951704545455 33.33451704545455  20.060369318181817 33.28480113636364  C 18.436316287878793 32.704782196969695  16.98626893939394 32.01704545454545  15.710227272727272 31.22159090909091  C 13.605587121212121 29.9124053030303  11.418087121212121 28.122632575757574  9.147727272727272 25.852272727272727  C 6.877367424242425 23.581912878787872  5.087594696969698 21.394412878787882  3.778409090909091 19.289772727272727  C 2.9829545454545454 18.01373106060606  2.295217803030303 16.563683712121207  1.7151988636363635 14.939630681818183  C 1.6654829545454546 14.790482954545451  1.5163352272727273 14.384469696969694  1.2677556818181819 13.72159090909091  C 1.0191761363636362 13.05871212121212  0.849313446969697 12.59883996212121  0.7581676136363636 12.341974431818183  C 0.6670217803030303 12.085108901515149  0.546875 11.695667613636362  0.39772727272727276 11.173650568181817  C 0.24857954545454544 10.651633522727268  0.14500473484848486 10.175189393939391  0.08700284090909091 9.744318181818183  C 0.029000946969696968 9.313446969696967  0 8.874289772727272  0 8.42684659090909  C 0 6.902225378787877  0.42258522727272724 5.361032196969694  1.2677556818181819 3.803267045454545  C 2.1957859848484853 2.1294981060606006  3.074100378787879 1.1186079545454553  3.9026988636363638 0.7705965909090895  C 4.316998106060606 0.5883049242424215  4.884588068181818 0.41429924242423866  5.60546875 0.24857954545454475  C 6.326349431818182 0.08285984848484695  6.910511363636364 0  7.357954545454546 0  C 7.589962121212122 0  7.7639678030303045 0.024857954545455252  7.879971590909091 0.07457386363636187  C 8.178267045454545 0.17400568181818288  8.617424242424242 0.8037405303030298  9.197443181818182 1.9637784090909105  C 9.37973484848485 2.278645833333328  9.628314393939396 2.726089015151511  9.943181818181818 3.306107954545455  C 10.258049242424242 3.886126893939392  10.548058712121213 4.4122869318181825  10.813210227272728 4.8845880681818175  C 11.078361742424242 5.356889204545455  11.335227272727272 5.800189393939392  11.583806818181818 6.2144886363636385  C 11.633522727272728 6.280776515151511  11.778527462121213 6.4879261363636385  12.018821022727272 6.8359375  C 12.259114583333336 7.1839488636363615  12.43726325757576 7.478101325757574  12.553267045454545 7.7183948863636385  C 12.669270833333334 7.958688446969694  12.727272727272728 8.19483901515151  12.727272727272728 8.42684659090909  C 12.727272727272728 8.75828598484848  12.491122159090908 9.172585227272728  12.018821022727272 9.669744318181817  C 11.546519886363637 10.16690340909091  11.032788825757576 10.622632575757574  10.477627840909092 11.036931818181817  C 9.922466856060606 11.451231060606055  9.408735795454545 11.890388257575758  8.936434659090908 12.35440340909091  C 8.464133522727272 12.818418560606059  8.227982954545455 13.199573863636362  8.227982954545455 13.497869318181817  C 8.227982954545455 13.647017045454545  8.269412878787879 13.833451704545455  8.352272727272728 14.057173295454545  C 8.435132575757576 14.280894886363638  8.505563446969697 14.450757575757574  8.56356534090909 14.566761363636362  C 8.621567234848486 14.682765151515149  8.737571022727272 14.881628787878787  8.911576704545455 15.163352272727272  C 9.085582386363637 15.445075757575758  9.180871212121213 15.60250946969697  9.197443181818182 15.63565340909091  C 10.456912878787879 17.906013257575754  11.898674242424242 19.853219696969695  13.522727272727272 21.477272727272727  C 15.146780303030305 23.101325757575754  17.093986742424246 24.543087121212118  19.36434659090909 25.80255681818182  C 19.39749053030303 25.819128787878782  19.554924242424242 25.914417613636367  19.836647727272727 26.088423295454543  C 20.11837121212121 26.262428977272727  20.31723484848485 26.378432765151512  20.433238636363637 26.43643465909091  C 20.549242424242426 26.4944365530303  20.719105113636363 26.564867424242422  20.942826704545457 26.647727272727273  C 21.166548295454543 26.730587121212118  21.352982954545457 26.772017045454543  21.502130681818183 26.772017045454543  C 21.800426136363637 26.772017045454543  22.18158143939394 26.535866477272727  22.64559659090909 26.06356534090909  C 23.109611742424242 25.591264204545457  23.548768939393945 25.07753314393939  23.963068181818183 24.52237215909091  C 24.377367424242426 23.96721117424242  24.83309659090909 23.453480113636367  25.330255681818183 22.981178977272727  C 25.827414772727273 22.50887784090909  26.24171401515152 22.272727272727273  26.57315340909091 22.272727272727273  C 26.805160984848488 22.272727272727273  27.041311553030305 22.330729166666664  27.281605113636363 22.446732954545457  C 27.521898674242426 22.56273674242424  27.816051136363637 22.740885416666664  28.1640625 22.981178977272727  C 28.512073863636363 23.221472537878782  28.719223484848488 23.366477272727273  28.785511363636363 23.41619318181818  C 29.19981060606061 23.664772727272727  29.643110795454543 23.921638257575754  30.115411931818183 24.186789772727273  C 30.587713068181817 24.451941287878782  31.11387310606061 24.741950757575754  31.693892045454543 25.05681818181818  C 32.27391098484849 25.371685606060606  32.72135416666667 25.62026515151515  33.036221590909086 25.80255681818182  C 34.19625946969697 26.382575757575754  34.82599431818182 26.821732954545457  34.92542613636364 27.12002840909091  Z " fill-rule="nonzero" fill="#026ca7" stroke="none" transform="matrix(1 0 0 1 34 2788 )" />
  </g>
</svg>