<?xml version="1.0" encoding="utf-8"?>
<svg version="1.1" xmlns:xlink="http://www.w3.org/1999/xlink" width="35px" height="30px" xmlns="http://www.w3.org/2000/svg">
  <g transform="matrix(1 0 0 1 -34 -2838 )">
    <path d="M 33.046875 11.526988636363637  C 33.7890625 10.973011363636363  34.44010416666667 10.355113636363637  35 9.673295454545453  L 35 26.59090909090909  C 35 27.52840909090909  34.69401041666667 28.33096590909091  34.08203125 28.998579545454547  C 33.47005208333334 29.66619318181818  32.73437500000001 30  31.875 30  L 3.125 30  C 2.265625 30  1.5299479166666667 29.66619318181818  0.9179687500000001 28.998579545454547  C 0.3059895833333335 28.33096590909091  0 27.52840909090909  0 26.59090909090909  L 0 9.673295454545453  C 0.5729166666666669 10.36931818181818  1.2304687500000002 10.987215909090905  1.97265625 11.526988636363637  C 6.686197916666668 15.021306818181818  9.921875 17.47159090909091  11.6796875 18.87784090909091  C 12.421875 19.47443181818182  13.024088541666668 19.93963068181818  13.486328125 20.2734375  C 13.948567708333334 20.607244318181813  14.563802083333334 20.948153409090907  15.33203125 21.296164772727273  C 16.100260416666668 21.644176136363637  16.81640625 21.81818181818182  17.48046875 21.81818181818182  L 17.5 21.81818181818182  L 17.51953125 21.81818181818182  C 18.183593750000004 21.81818181818182  18.899739583333332 21.644176136363637  19.66796875 21.296164772727273  C 20.43619791666667 20.948153409090907  21.05143229166667 20.607244318181813  21.513671875 20.2734375  C 21.975911458333332 19.93963068181818  22.578125 19.47443181818182  23.3203125 18.87784090909091  C 25.53385416666667 17.13068181818182  28.77604166666667 14.680397727272728  33.046875 11.526988636363637  Z M 34.072265625 1.001420454545453  C 34.690755208333336 1.6690340909090884  35 2.471590909090909  35 3.409090909090909  C 35 4.531249999999996  34.680989583333336 5.603693181818182  34.04296875 6.626420454545453  C 33.40494791666667 7.649147727272728  32.610677083333336 8.522727272727272  31.66015625 9.24715909090909  C 26.76432291666667 12.954545454545453  23.71744791666667 15.262784090909092  22.51953125 16.171875  C 22.38932291666667 16.271306818181817  22.112630208333332 16.487926136363637  21.689453125 16.821732954545457  C 21.266276041666668 17.15553977272727  20.91471354166667 17.425426136363637  20.634765625 17.631392045454543  C 20.354817708333332 17.837357954545453  20.01627604166667 18.06818181818182  19.619140625 18.323863636363637  C 19.222005208333336 18.579545454545457  18.84765625 18.77130681818182  18.49609375 18.899147727272727  C 18.14453125 19.026988636363637  17.819010416666668 19.09090909090909  17.51953125 19.09090909090909  L 17.5 19.09090909090909  L 17.48046875 19.09090909090909  C 17.180989583333336 19.09090909090909  16.85546875 19.026988636363637  16.50390625 18.899147727272727  C 16.15234375 18.77130681818182  15.777994791666668 18.579545454545457  15.380859375 18.323863636363637  C 14.983723958333334 18.06818181818182  14.645182291666666 17.837357954545453  14.365234375 17.631392045454543  C 14.085286458333334 17.425426136363637  13.733723958333336 17.15553977272727  13.310546875 16.821732954545457  C 12.887369791666668 16.487926136363637  12.610677083333336 16.271306818181817  12.48046875 16.171875  C 11.295572916666666 15.262784090909092  9.58984375 13.966619318181818  7.36328125 12.283380681818182  C 5.13671875 10.600142045454543  3.802083333333334 9.588068181818178  3.359375 9.24715909090909  C 2.5520833333333335 8.650568181818178  1.7903645833333337 7.830255681818182  1.0742187500000002 6.786221590909091  C 0.3580729166666668 5.7421875  0 4.772727272727272  0 3.877840909090909  C 0 2.7698863636363624  0.2701822916666668 1.846590909090905  0.8105468750000001 1.107954545454547  C 1.3509114583333337 0.369318181818179  2.122395833333334 0  3.125 0  L 31.875 0  C 32.72135416666667 0  33.45377604166667 0.33380681818181435  34.072265625 1.001420454545453  Z " fill-rule="nonzero" fill="#026ca7" stroke="none" transform="matrix(1 0 0 1 34 2838 )" />
  </g>
</svg>