<?xml version="1.0" encoding="utf-8"?>
<svg version="1.1" xmlns:xlink="http://www.w3.org/1999/xlink" width="30px" height="40px" xmlns="http://www.w3.org/2000/svg">
  <g transform="matrix(1 0 0 1 -36 -2738 )">
    <path d="M 20.302734375 18.046875  C 21.767578125 16.744791666666664  22.5 15.17361111111111  22.5 13.333333333333336  C 22.5 11.493055555555554  21.767578125 9.921875  20.302734375 8.619791666666664  C 18.837890625 7.317708333333335  17.070312500000004 6.666666666666665  15 6.666666666666665  C 12.929687500000002 6.666666666666665  11.162109375 7.317708333333335  9.697265625 8.619791666666664  C 8.232421875 9.921875  7.5 11.493055555555554  7.5 13.333333333333336  C 7.5 15.17361111111111  8.232421875 16.744791666666664  9.697265625 18.046875  C 11.162109375 19.348958333333336  12.929687500000002 20  15 20  C 17.070312500000004 20  18.837890625 19.348958333333336  20.302734375 18.046875  Z M 25.60546875 3.90625  C 28.53515625 6.510416666666665  30 9.652777777777771  30 13.333333333333336  C 30 15.225694444444443  29.677734375 16.77951388888889  29.033203125 17.994791666666664  L 18.369140625 38.151041666666664  C 18.056640625 38.723958333333336  17.5927734375 39.17534722222222  16.9775390625 39.505208333333336  C 16.3623046875 39.83506944444444  15.703125 40  15 40  C 14.296875 40  13.6376953125 39.83506944444444  13.0224609375 39.505208333333336  C 12.4072265625 39.17534722222222  11.953125 38.723958333333336  11.66015625 38.151041666666664  L 0.966796875 17.994791666666664  C 0.322265625 16.77951388888889  0 15.225694444444443  0 13.333333333333336  C 0 9.652777777777771  1.46484375 6.510416666666665  4.39453125 3.90625  C 7.324218750000001 1.3020833333333348  10.859375 0  15 0  C 19.140625 0  22.67578125 1.3020833333333348  25.60546875 3.90625  Z " fill-rule="nonzero" fill="#026ca7" stroke="none" transform="matrix(1 0 0 1 36 2738 )" />
  </g>
</svg>