<?xml version="1.0" encoding="utf-8"?>
<svg version="1.1" xmlns:xlink="http://www.w3.org/1999/xlink" width="50px" height="40px" xmlns="http://www.w3.org/2000/svg">
  <g transform="matrix(1 0 0 1 -360 -483 )">
    <path d="M 35.184151785714285 17.78405081157375  C 35.537574404761905 17.426487885203482  35.714285714285715 17.003058103975533  35.714285714285715 16.513761467889907  C 35.714285714285715 16.024464831804277  35.537574404761905 15.601035050576332  35.184151785714285 15.24347212420607  C 34.83072916666667 14.885909197835803  34.41220238095239 14.707127734650669  33.92857142857143 14.707127734650669  C 30.729166666666668 14.707127734650669  27.771577380952383 15.172900494001414  25.05580357142857 16.104446012702894  C 22.340029761904763 17.035991531404377  19.92652529761905 18.29687132439426  17.815290178571427 19.88708539167255  C 15.70405505952381 21.47729945895083  13.513764880952381 23.542695836273815  11.244419642857142 26.0832745236415  C 10.890997023809524 26.478475652787576  10.714285714285714 26.901905434015525  10.714285714285714 27.353563867325335  C 10.714285714285714 27.84286050341096  10.890997023809524 28.266290284638906  11.244419642857142 28.62385321100917  C 11.597842261904763 28.981416137379444  12.016369047619047 29.160197600564572  12.5 29.160197600564572  C 12.946428571428573 29.160197600564572  13.364955357142858 28.981416137379444  13.755580357142858 28.62385321100917  C 14.2578125 28.17219477769936  14.94605654761905 27.504116678428602  15.8203125 26.619618913196895  C 16.694568452380953 25.73512114796518  17.317708333333336 25.1140908021642  17.689732142857142 24.756527875793928  C 20.23809523809524 22.422959303693247  22.735305059523814 20.766878381557277  25.181361607142854 19.788285109386024  C 27.627418154761905 18.809691837214775  30.543154761904763 18.320395201129145  33.92857142857143 18.320395201129145  C 34.41220238095239 18.320395201129145  34.83072916666667 18.141613737944017  35.184151785714285 17.78405081157375  Z M 49.776785714285715 8.214537755822157  C 49.92559523809524 9.30604563632086  50 10.209362502940479  50 10.924488355681014  C 50 12.712302987532343  49.8139880952381 14.528346271465535  49.441964285714285 16.372618207480592  C 48.586309523809526 20.588096918372145  46.870349702380956 24.191954834156668  44.29408482142857 27.184191954834155  C 41.71781994047619 30.176429075511642  38.392857142857146 32.698188661491415  34.31919642857143 34.749470712773466  C 30.338541666666668 36.781933662667605  26.264880952380953 37.79816513761468  22.098214285714285 37.79816513761468  C 19.345238095238095 37.79816513761468  16.685267857142858 37.35591625499882  14.118303571428573 36.47141848976712  C 13.839285714285715 36.37732298282757  13.020833333333334 35.98212185368149  11.662946428571429 35.28581510232886  C 10.305059523809526 34.58950835097624  9.412202380952381 34.24135497529993  8.984375 34.24135497529993  C 8.686755952380953 34.24135497529993  8.31938244047619 34.54246059750646  7.8822544642857135 35.144671841919546  C 7.44512648809524 35.74688308633262  7.026599702380952 36.405551634909436  6.626674107142858 37.120677487649964  C 6.226748511904763 37.8358033403905  5.738467261904763 38.494471888967304  5.161830357142857 39.09668313338038  C 4.5851934523809526 39.69889437779346  4.027157738095238 40  3.4877232142857144 40  C 2.687872023809524 40  2.0972842261904763 39.8353328628558  1.7159598214285716 39.505998588567394  C 1.3346354166666667 39.176664314278995  0.9114583333333334 38.616796047988714  0.4464285714285714 37.826393789696546  C 0.4092261904761905 37.751117384144905  0.35342261904761907 37.64761232651141  0.27901785714285715 37.515878616796044  C 0.20461309523809526 37.38414490708068  0.15345982142857142 37.29004940014114  0.12555803571428573 37.233592095977414  C 0.09765625 37.17713479181369  0.06975446428571429 37.08774406022113  0.04185267857142857 36.965419901199716  C 0.013950892857142856 36.84309574217831  0 36.71606680780993  0 36.58433309809457  C 0 35.92566454951776  0.28831845238095233 35.23406257351212  0.8649553571428572 34.50952717007763  C 1.441592261904762 33.78499176664314  2.074032738095238 33.16866619618913  2.7622767857142856 32.6605504587156  C 3.4505208333333335 32.15243472124206  4.082961309523809 31.625499882380616  4.659598214285714 31.07974594213126  C 5.2362351190476195 30.533992001881906  5.524553571428572 30.082333568572096  5.524553571428571 29.724770642201833  C 5.524553571428572 29.6494942366502  5.394345238095239 29.29193131027993  5.133928571428571 28.652081863091038  C 4.873511904761905 28.01223241590214  4.724702380952381 27.598212185368144  4.6875 27.41002117148906  C 4.520089285714286 26.450247000705716  4.436383928571429 25.47165372853446  4.436383928571429 24.474241354975298  C 4.436383928571429 22.310044695365793  4.840959821428571 20.239943542695833  5.650111607142857 18.26393789696542  C 6.459263392857144 16.287932251235002  7.566034226190476 14.551870148200425  8.970424107142858 13.055751587861678  C 10.374813988095239 11.559633027522938  11.960565476190476 10.251705481063276  13.727678571428573 9.131968948482712  C 15.494791666666668 8.012232415902139  17.392113095238095 7.113620324629499  19.419642857142858 6.436132674664785  C 20.442708333333336 6.097388849682428  21.791294642857142 5.857445306986593  23.465401785714285 5.716302046577275  C 25.13950892857143 5.575158786167962  26.808965773809522 5.49047282992237  28.47377232142857 5.4622441778405095  C 30.13857886904762 5.434015525758644  31.79873511904762 5.377558221594918  33.45424107142857 5.292872265349331  C 35.109747023809526 5.2081863091037395  36.6303943452381 4.982357092448835  38.016183035714285 4.615384615384617  C 39.401971726190474 4.248412138320394  40.457589285714285 3.7167725241119687  41.183035714285715 3.0204657727593487  L 42.006138392857146 2.187720536344391  C 42.006138392857146 2.187720536344391  42.280505952380956 1.9242531169136612  42.82924107142857 1.3973182780522242  C 43.3779761904762 0.8703834391907783  43.62909226190477 0.6821924253116851  43.582589285714285 0.8327452364149623  C 43.53608630952381 0.9832980475182307  43.875558035714285 0.8327452364149623  44.601004464285715 0.38108680310515286  C 45.326450892857146 -0.07057163020466106  45.731026785714285 -0.11291460832745237  45.814732142857146 0.2540578687367656  C 46.54017857142857 0.2540578687367656  47.195870535714285 0.6868972006586649  47.781808035714285 1.5525758645024679  C 48.367745535714285 2.4182545283462664  48.80952380952381 3.472124206069158  49.107142857142854 4.714184897671134  C 49.40476190476191 5.95624558927311  49.6279761904762 7.12302987532345  49.776785714285715 8.214537755822157  Z " fill-rule="nonzero" fill="#05f04b" stroke="none" transform="matrix(1 0 0 1 360 483 )" />
  </g>
</svg>