<?xml version="1.0" encoding="utf-8"?>
<svg version="1.1" xmlns:xlink="http://www.w3.org/1999/xlink" width="25px" height="25px" xmlns="http://www.w3.org/2000/svg">
  <g transform="matrix(1 0 0 1 -74 -444 )">
    <path d="M 6.93359375 0.05580357142857262  C 6.998697916666667 0.018601190476191798  7.068452380952382 0  7.142857142857142 0  C 7.263764880952382 0  7.368396577380953 0.04417782738095344  7.456752232142858 0.13253348214285754  C 7.545107886904763 0.22088913690476164  7.5892857142857135 0.3255208333333315  8 0.4464285714285726  L 8 20.982142857142858  C 7.5892857142857135 21.168154761904763  7.510230654761905 21.298363095238095  7.3521205357142865 21.372767857142858  L 0.6556919642857143 24.944196428571427  C 0.5905877976190477 24.98139880952381  0.5208333333333334 25  0.4464285714285714 25  C 0.32552083333333337 25  0.2208891369047619 24.955822172619047  0.13253348214285715 24.867466517857142  C 0.044177827380952384 24.779110863095237  0 24.674479166666668  0 24.553571428571427  L 0 4.017857142857142  C 0 3.8318452380952355  0.07905505952380952 3.701636904761904  0.23716517857142855 3.6272321428571423  L 6.93359375 0.05580357142857262  Z M 24.344308035714285 0.05580357142857262  C 24.409412202380956 0.018601190476191798  24.47916666666667 0  24.553571428571427 0  C 24.67447916666667 0  24.77911086309524 0.04417782738095344  24.867466517857142 0.13253348214285754  C 24.95582217261905 0.22088913690476164  25 0.3255208333333315  25 0.4464285714285726  L 25 20.982142857142858  C 25 21.168154761904763  24.920944940476193 21.298363095238095  24.762834821428573 21.372767857142858  L 18.06640625 24.944196428571427  C 18.001302083333336 24.98139880952381  17.93154761904762 25  17.857142857142858 25  C 17.73623511904762 25  17.63160342261905 24.955822172619047  17.543247767857142 24.867466517857142  C 17.454892113095237 24.779110863095237  17.410714285714285 24.674479166666668  17 24.553571428571427  L 17 4.017857142857142  C 17.410714285714285 3.8318452380952355  17.489769345238095 3.701636904761904  17.647879464285715 3.6272321428571423  L 24.344308035714285 0.05580357142857262  Z M 8.614676339285714 0.13253348214285754  C 8.703031994047619 0.04417782738095344  8.80766369047619 0  8.928571428571429 0  C 9.00297619047619 0  9.068080357142858 0.01395089285714246  9.123883928571429 0.04185267857142738  L 16.266741071428573 3.61328125  C 16.434151785714285 3.7062872023809508  16.517857142857142 3.8411458333333313  16.517857142857142 4.017857142857142  L 16.517857142857142 24.553571428571427  C 16.517857142857142 24.674479166666668  16.473679315476193 24.779110863095237  16.385323660714285 24.867466517857142  C 16.29696800595238 24.955822172619047  16.19233630952381 25  16.071428571428573 25  C 15.99702380952381 25  15.931919642857142 24.986049107142858  15.876116071428573 24.958147321428573  L 8.733258928571429 21.38671875  C 8.565848214285714 21.293712797619047  8.482142857142858 21.158854166666668  8.482142857142858 20.982142857142858  L 8.482142857142858 0.4464285714285726  C 8.482142857142858 0.3255208333333315  8.52632068452381 0.22088913690476164  8.614676339285714 0.13253348214285754  Z " fill-rule="nonzero" fill="#f5e20a" stroke="none" transform="matrix(1 0 0 1 74 444 )" />
  </g>
</svg>