<?xml version="1.0" encoding="utf-8"?>
<svg version="1.1" xmlns:xlink="http://www.w3.org/1999/xlink" width="25px" height="25px" xmlns="http://www.w3.org/2000/svg">
  <g transform="matrix(1 0 0 1 -74 -482 )">
    <path d="M 15.445963541666666 15.445963541666668  C 16.259765625 14.632161458333332  16.666666666666664 13.65017361111111  16.666666666666664 12.5  C 16.666666666666664 11.349826388888888  16.259765625 10.367838541666666  15.445963541666666 9.554036458333334  C 14.632161458333334 8.740234375  13.650173611111112 8.333333333333334  12.5 8.333333333333334  C 11.34982638888889 8.333333333333334  10.367838541666668 8.740234375  9.554036458333332 9.554036458333334  C 8.740234375 10.367838541666666  8.333333333333332 11.349826388888888  8.333333333333332 12.5  C 8.333333333333332 13.65017361111111  8.740234375 14.632161458333332  9.554036458333332 15.445963541666668  C 10.367838541666668 16.259765625  11.34982638888889 16.666666666666668  12.5 16.666666666666668  C 13.650173611111112 16.666666666666668  14.632161458333334 16.259765625  15.445963541666666 15.445963541666668  Z M 24.869791666666664 10.343424479166666  C 24.95659722222222 10.457356770833334  25 10.584852430555555  25 10.725911458333334  L 25 14.339192708333332  C 25 14.469401041666668  24.95659722222222 14.594184027777779  24.869791666666664 14.713541666666668  C 24.782986111111114 14.832899305555552  24.674479166666664 14.903428819444443  24.544270833333336 14.925130208333332  L 21.533203125 15.380859375  C 21.327039930555557 15.966796875  21.115451388888893 16.46050347222222  20.8984375 16.861979166666668  C 21.278211805555557 17.40451388888889  21.858723958333336 18.153211805555554  22.639973958333336 19.108072916666664  C 22.74848090277778 19.23828125  22.802734375 19.373914930555554  22.802734375 19.514973958333336  C 22.802734375 19.656032986111114  22.75390625 19.78081597222222  22.65625 19.889322916666664  C 22.36328125 20.290798611111114  21.826171875 20.876736111111114  21.044921875 21.647135416666664  C 20.263671875 22.41753472222222  19.753689236111114 22.802734375  19.514973958333336 22.802734375  C 19.384765625 22.802734375  19.243706597222225 22.75390625  19.091796875 22.65625  L 16.845703125 20.8984375  C 16.368272569444446 21.14800347222222  15.874565972222223 21.354166666666664  15.364583333333334 21.516927083333336  C 15.190972222222223 22.99262152777778  15.033637152777779 24.001736111111114  14.892578125 24.544270833333336  C 14.81662326388889 24.84809027777778  14.62131076388889 25  14.306640625 25  L 10.693359375 25  C 10.541449652777779 25  10.408528645833332 24.953884548611114  10.294596354166668 24.861653645833336  C 10.1806640625 24.769422743055554  10.118272569444446 24.65277777777778  10.107421875 24.51171875  L 9.651692708333332 21.516927083333336  C 9.120008680555557 21.34331597222222  8.631727430555557 21.142578125  8.186848958333332 20.914713541666664  L 5.891927083333334 22.65625  C 5.783420138888889 22.75390625  5.647786458333334 22.802734375  5.485026041666666 22.802734375  C 5.333116319444445 22.802734375  5.197482638888889 22.743055555555554  5.078125 22.623697916666664  C 3.7109375 21.38671875  2.815755208333333 20.475260416666664  2.392578125 19.889322916666664  C 2.3166232638888893 19.78081597222222  2.278645833333333 19.656032986111114  2.278645833333333 19.514973958333336  C 2.278645833333333 19.384765625  2.3220486111111116 19.259982638888886  2.408854166666667 19.140625  C 2.571614583333333 18.912760416666664  2.848307291666667 18.55197482638889  3.2389322916666665 18.058268229166668  C 3.6295572916666665 17.564561631944443  3.9225260416666665 17.182074652777775  4.117838541666666 16.910807291666668  C 3.8248697916666665 16.368272569444443  3.602430555555556 15.831163194444443  3.4505208333333335 15.299479166666668  L 0.4720052083333333 14.860026041666668  C 0.3309461805555556 14.838324652777779  0.2170138888888889 14.7705078125  0.13020833333333331 14.656575520833332  C 0.043402777777777776 14.542643229166668  0 14.415147569444443  0 14.274088541666668  L 0 10.660807291666666  C 0 10.530598958333334  0.043402777777777776 10.405815972222221  0.13020833333333331 10.286458333333334  C 0.2170138888888889 10.167100694444445  0.32009548611111116 10.096571180555555  0.439453125 10.074869791666666  L 3.466796875 9.619140625  C 3.6187065972222223 9.120008680555555  3.830295138888889 8.62087673611111  4.1015625 8.121744791666666  C 3.6675347222222223 7.503255208333334  3.0870225694444446 6.754557291666666  2.360026041666667 5.875651041666666  C 2.2515190972222223 5.745442708333334  2.197265625 5.615234375  2.197265625 5.485026041666666  C 2.197265625 5.376519097222221  2.24609375 5.251736111111108  2.34375 5.110677083333334  C 2.625868055555556 4.720052083333334  3.1602647569444446 4.136827256944442  3.9469401041666665 3.3610026041666656  C 4.733615451388889 2.5851779513888866  5.246310763888889 2.197265625  5.485026041666666 2.197265625  C 5.626085069444445 2.197265625  5.767144097222223 2.251519097222221  5.908203125 2.3600260416666656  L 8.154296875 4.1015625  C 8.631727430555557 3.8519965277777763  9.125434027777779 3.6458333333333344  9.635416666666668 3.4830729166666656  C 9.809027777777779 2.007378472222221  9.966362847222223 0.9982638888888867  10.107421875 0.45572916666666574  C 10.183376736111112 0.151909722222221  10.378689236111112 0  10.693359375 0  L 14.306640625 0  C 14.458550347222223 0  14.591471354166666 0.04611545138888673  14.705403645833334 0.13834635416666574  C 14.8193359375 0.23057725694444198  14.881727430555555 0.347222222222221  14.892578125 0.48828125  L 15.348307291666666 3.4830729166666656  C 15.879991319444445 3.6566840277777763  16.368272569444446 3.857421875  16.813151041666664 4.085286458333334  L 19.124348958333336 2.34375  C 19.222005208333336 2.24609375  19.352213541666664 2.197265625  19.514973958333336 2.197265625  C 19.656032986111114 2.197265625  19.791666666666664 2.251519097222221  19.921875 2.3600260416666656  C 21.321614583333336 3.6512586805555554  22.216796875 4.573567708333334  22.607421875 5.126953125  C 22.683376736111114 5.213758680555555  22.721354166666664 5.333116319444442  22.721354166666664 5.485026041666666  C 22.721354166666664 5.615234375  22.677951388888893 5.740017361111108  22.591145833333336 5.859375  C 22.428385416666664 6.087239583333334  22.151692708333336 6.448025173611108  21.761067708333336 6.941731770833334  C 21.370442708333336 7.435438368055555  21.077473958333336 7.817925347222221  20.882161458333336 8.089192708333334  C 21.164279513888893 8.631727430555555  21.38671875 9.163411458333332  21.549479166666664 9.684244791666666  L 24.527994791666664 10.139973958333334  C 24.669053819444446 10.161675347222221  24.782986111111114 10.229492187499996  24.869791666666664 10.343424479166666  Z " fill-rule="nonzero" fill="#06c759" stroke="none" transform="matrix(1 0 0 1 74 482 )" />
  </g>
</svg>